<svg xmlns="http://www.w3.org/2000/svg" width="60.999" height="60.999" viewBox="0 0 60.999 60.999">
  <defs>
    <style>
      .cls-1 {
        fill: #2c497f;
      }
    </style>
  </defs>
  <g id="Group_176" data-name="Group 176" transform="translate(-837.299 -290.887)">
    <path id="Path_1" data-name="Path 1" class="cls-1" d="M912.313,306.565a30.8,30.8,0,0,0-5.4-4.716,30.381,30.381,0,0,0-4.259-2.456l-5.487,5.488a23.245,23.245,0,0,1,4.578,2.136l-23.557,23.558a12.038,12.038,0,0,1,2.99-12.092l-5.053-5.053a19.165,19.165,0,0,0,1.14,28.181l5.078-5.078,24.9-24.9h0l5.063-5.063Z" transform="translate(-21.897 -5.611)"/>
    <path id="Path_2" data-name="Path 2" class="cls-1" d="M895.972,309.721a30.518,30.518,0,0,0-3.658-6.453h0l-5.126,5.126h0L867.8,327.783v10.112l22.555-22.555a23.392,23.392,0,1,1-18.428-16.931l5.846-5.846a30.534,30.534,0,1,0,18.2,17.158Z" transform="translate(0)"/>
  </g>
</svg>
